<svg width="33" height="32" viewBox="0 0 33 32" fill="none" xmlns="http://www.w3.org/2000/svg">
<path d="M13.6324 32V20.7505H9.56916V16.099H13.6159C13.6818 12.6515 13.0073 8.74227 16.758 6.89485C18.7485 5.90515 21.2654 6.36701 23.3052 6.61443V10.5732C21.5615 10.5732 20.048 10.3258 19.1433 11.4804C18.4524 12.3546 18.6827 14.7794 18.6827 16.099H23.1243L22.4169 20.7505L18.6662 20.767V32C19.1104 32 19.8342 31.7856 20.229 31.6866C20.7554 31.5546 21.1996 31.4062 21.7095 31.2247C23.4039 30.6474 25.2135 29.5258 26.5459 28.4041C27.4178 27.6619 28.2074 26.8371 28.8983 25.9299C30.5598 23.6866 31.6291 21.3278 32.0568 18.5237C32.1226 18.0619 32.172 17.5835 32.2049 17.1216V15.0433C32.1062 13.3608 31.7278 11.7113 31.1027 10.1443C30.4611 8.49485 29.5399 6.97732 28.3884 5.62474C28.2897 5.50928 28.2568 5.49278 28.1416 5.36082C27.681 4.7835 27.1711 4.37113 26.694 3.92577L25.0819 2.65567C23.4368 1.56701 21.6108 0.775258 19.6697 0.346392C18.6991 0.148454 17.7121 0.0329897 16.7086 0H15.59C14.603 0.0164948 13.6324 0.148454 12.6618 0.346392C11.6748 0.57732 10.7042 0.890722 9.76656 1.2866C8.8947 1.66598 8.07218 2.11134 7.28256 2.62268L5.91718 3.64536C4.5847 4.73402 3.44962 6.02062 2.5284 7.48866C1.95264 8.41237 1.96909 8.44536 1.50848 9.36907C1.22883 10.0454 0.965619 10.7546 0.751765 11.4639C0.373406 12.6351 0.159551 13.8557 0.09375 15.0928V16.9237C0.143101 17.9464 0.291154 18.9691 0.53791 19.9753C0.768215 20.9485 1.09722 21.9052 1.52493 22.8124C2.03489 23.8351 2.1994 24.2804 2.93966 25.2866C4.05829 26.8371 4.32149 27.068 5.67042 28.3216C5.75268 28.3876 5.83493 28.4701 5.91718 28.5196C6.03233 28.6021 6.06523 28.6515 6.18039 28.7505C6.37779 28.9155 6.54229 29.0309 6.75615 29.1794C8.38473 30.301 10.0462 31.1753 12.0038 31.6536C12.448 31.7691 13.1882 32 13.6324 32Z" fill="#EEEEEE"/>
</svg>
