<svg width="34" height="32" viewBox="0 0 34 32" fill="none" xmlns="http://www.w3.org/2000/svg">
<path fill-rule="evenodd" clip-rule="evenodd" d="M11.61 16C11.61 13.0476 13.9992 10.6667 16.9618 10.6667C19.9244 10.6667 22.3137 13.0476 22.3137 16C22.3137 18.9524 19.9244 21.3333 16.9618 21.3333C13.9992 21.3333 11.61 18.9333 11.61 16ZM8.70466 16C8.70466 20.5333 12.3936 24.2095 16.9427 24.2095C21.4918 24.2095 25.1807 20.5333 25.1807 16C25.1807 11.4667 21.4918 7.79048 16.9427 7.79048C12.3936 7.79048 8.70466 11.4667 8.70466 16ZM23.5943 7.44762C23.5943 6.38095 24.4544 5.52381 25.5248 5.52381C26.5951 5.52381 27.4553 6.38095 27.4553 7.44762C27.4553 8.51429 26.5951 9.37143 25.5248 9.37143C24.4544 9.37143 23.5943 8.51429 23.5943 7.44762ZM10.4631 29.0095C12.1451 29.0857 12.6612 29.1048 16.9427 29.1048C21.2242 29.1048 21.7402 29.0857 23.4223 29.0095C24.9896 28.9333 25.8306 28.6857 26.404 28.4571C27.1494 28.1714 27.6846 27.8286 28.258 27.2571C28.8123 26.7048 29.1755 26.1714 29.4622 25.4095C29.6725 24.8381 29.94 24 30.0165 22.4381C30.093 20.7429 30.1121 20.2476 30.1121 15.981C30.1121 11.7143 30.093 11.2 30.0165 9.52381C29.94 7.96191 29.6916 7.12381 29.4622 6.55238C29.1755 5.80952 28.8314 5.27619 28.258 4.70476C27.7037 4.15238 27.1686 3.79048 26.404 3.50476C25.8306 3.29524 24.9896 3.02857 23.4223 2.95238C21.7211 2.87619 21.2242 2.85714 16.9427 2.85714C12.6612 2.85714 12.1451 2.87619 10.4631 2.95238C8.8958 3.02857 8.0548 3.27619 7.48138 3.50476C6.73595 3.79048 6.20076 4.13333 5.62735 4.70476C5.07305 5.25714 4.70989 5.79048 4.42318 6.55238C4.21293 7.12381 3.94534 7.96191 3.86888 9.52381C3.79243 11.219 3.77331 11.7143 3.77331 15.981C3.77331 20.2476 3.79243 20.7619 3.86888 22.4381C3.94534 24 4.19382 24.8381 4.42318 25.4095C4.70989 26.1524 5.05394 26.6857 5.62735 27.2571C6.18165 27.8095 6.71683 28.1714 7.48138 28.4571C8.0548 28.6857 8.91491 28.9333 10.4631 29.0095ZM10.3293 0.0952381C8.62821 0.171429 7.46227 0.438095 6.43013 0.838095C5.37887 1.2381 4.48052 1.79048 3.58218 2.68571C2.70294 3.58095 2.16776 4.45714 1.74726 5.52381C1.34587 6.53333 1.07827 7.69524 1.00182 9.40952C0.925364 11.1048 0.90625 11.6571 0.90625 16C0.90625 20.3429 0.925364 20.8952 1.00182 22.5905C1.07827 24.2857 1.34587 25.4476 1.74726 26.4762C2.14864 27.5238 2.70294 28.419 3.60129 29.3143C4.49964 30.2095 5.37887 30.7429 6.44924 31.1619C7.46227 31.5619 8.62821 31.8286 10.3484 31.9048C12.0687 31.981 12.6039 32 16.9618 32C21.3197 32 21.874 31.981 23.5752 31.9048C25.2763 31.8286 26.4422 31.5619 27.4744 31.1619C28.5256 30.7619 29.424 30.2095 30.3223 29.3143C31.2207 28.419 31.7559 27.5238 32.1764 26.4762C32.5777 25.4667 32.8453 24.3048 32.9218 22.5905C32.9982 20.8762 33.0174 20.3429 33.0174 16C33.0174 11.6571 32.9982 11.1048 32.9218 9.40952C32.8453 7.71429 32.5777 6.55238 32.1764 5.52381C31.775 4.47619 31.2207 3.58095 30.3223 2.68571C29.424 1.79048 28.5256 1.25714 27.4744 0.838095C26.4613 0.438095 25.2954 0.171429 23.5752 0.0952381C21.8549 0.0190476 21.3197 0 16.9618 0C12.6039 0 12.0496 0.0190476 10.3293 0.0952381Z" fill="#EEEEEE"/>
</svg>
