<svg width="33" height="32" viewBox="0 0 33 32" fill="none" xmlns="http://www.w3.org/2000/svg">
<path d="M16.3368 0C7.47092 0 0.28125 7.16479 0.28125 16C0.28125 24.8352 7.47092 32 16.3368 32C25.2027 32 32.3924 24.8352 32.3924 16C32.3924 7.16479 25.2027 0 16.3368 0ZM26.3691 16.0164C26.3691 16.0164 26.3691 19.2612 25.956 20.8259C25.7245 21.6824 25.0469 22.3577 24.1875 22.5881C22.6173 23 16.3368 23 16.3368 23C16.3368 23 10.0727 23 8.48615 22.5718C7.62674 22.3413 6.9491 21.6658 6.71758 20.8093C6.30429 19.2612 6.30429 16 6.30429 16C6.30429 16 6.30429 12.7554 6.71758 11.1907C6.94885 10.3342 7.64315 9.64233 8.48615 9.41187C10.0563 9 16.3368 9 16.3368 9C16.3368 9 22.6173 9 24.1875 9.42822C25.0469 9.65869 25.7245 10.3342 25.956 11.1907C26.3857 12.7554 26.3691 16.0164 26.3691 16.0164Z" fill="#EEEEEE"/>
</svg>
